<svg xmlns="http://www.w3.org/2000/svg" width="1093.57" height="1093.568" viewBox="0 0 1093.57 1093.568">
  <path id="Path_15366" data-name="Path 15366" d="M5640.219,1471.528c-44.465-16.55-78.082-54.476-105.094-89.4a438.211,438.211,0,0,0-56.332-60.734,161.547,161.547,0,0,1,8.1-219.648l.035-.029h-.008l.027-.028a6.425,6.425,0,0,0-9.066-9.106l-.008-.01-.109.105a161.567,161.567,0,0,1-221.957,6.049,434.361,434.361,0,0,0-62.762-58.677c-34.914-27.012-72.852-60.62-89.4-105.084a6.429,6.429,0,0,0-12.055,0c-16.543,44.464-54.484,78.072-89.406,105.084a437.642,437.642,0,0,0-60.973,56.629,161.555,161.555,0,0,1-220-7.905,6.427,6.427,0,0,0-9.109,9.068h-.008l.02.02.008.009c60.785,60.793,62.906,158.348,6.395,221.735a435.373,435.373,0,0,0-58.406,62.523c-27.012,34.925-60.621,72.851-105.086,89.4a6.432,6.432,0,0,0,0,12.058c44.465,16.549,78.074,54.475,105.086,89.4a445.993,445.993,0,0,0,51.68,56.658c59.422,63.234,58.309,162.991-3.449,224.812l-.027.029h0l-.02.028a6.425,6.425,0,0,0,9.066,9.106v.01l.117-.105a161.529,161.529,0,0,1,227.016-1.289,444.79,444.79,0,0,0,57.7,52.821c34.922,27.021,72.863,60.639,89.406,105.094a6.429,6.429,0,0,0,12.055,0c16.547-44.455,54.469-78.072,89.4-105.094a446.111,446.111,0,0,0,56.422-51.427,161.514,161.514,0,0,1,224.555,3.8,6.43,6.43,0,0,0,9.117-9.068h0l-.008-.019-.008-.01c-62.672-62.667-62.988-164.415-.992-227.5a442.857,442.857,0,0,0,52.992-57.841c27.012-34.925,60.629-72.851,105.094-89.4a6.436,6.436,0,0,0,0-12.058ZM5524.953,1390c22.723,29.377,50.07,60.8,84.773,81.121H5409.07a310.4,310.4,0,0,0-82.656-204.311c-.07-1.174-.148-2.347-.227-3.521,52.281,6.636,99.828,28.9,143.633,67.39,2.578,2.942,5.234,5.855,8.031,8.645l.723-.712A436.379,436.379,0,0,1,5524.953,1390Zm-208.969,291.691-2.039-.066c-.027.788-.113,1.566-.148,2.355-.531.567-1.07,1.135-1.605,1.7l-177.773-179.56a45.963,45.963,0,0,0,9.09-22.146H5396.23A297.546,297.546,0,0,1,5315.984,1681.694Zm-424.82,12.039c-.379-.355-.754-.711-1.121-1.066L5069.6,1514.9a45.982,45.982,0,0,0,21.586,9.01v252.785a297.57,297.57,0,0,1-197.707-80.746l.07-2.058C4892.75,1693.858,4891.961,1693.772,4891.164,1693.733Zm-92.152-209.753h252.715a45.97,45.97,0,0,0,8.82,21.771l-179.164,177.386c-.02-.509-.074-1-.094-1.509l-2.035.066A297.543,297.543,0,0,1,4799.012,1483.98Zm81.242-210.532,1.035.038c.02-.4.066-.788.074-1.192.566-.6,1.125-1.192,1.691-1.778l177.773,179.559a45.908,45.908,0,0,0-8.926,21.05H4799.039A297.589,297.589,0,0,1,4880.254,1273.448Zm13.266-13.232a297.556,297.556,0,0,1,197.664-80.707v252.786a45.947,45.947,0,0,0-21.223,8.731L4892.2,1261.476l.191-.184c.387-.009.773-.058,1.168-.077Zm409.332,1.077c.789.741,1.566,1.491,2.348,2.241L5125.645,1441.3a45.974,45.974,0,0,0-21.594-9.01V1179.508a297.57,297.57,0,0,1,197.676,80.707l-.039,1C5302.082,1261.235,5302.457,1261.284,5302.852,1261.292Zm-198.8,262.613a45.977,45.977,0,0,0,21.234-8.731l176.906,178.675c-.176.009-.332.028-.5.038l.074,2.058a297.572,297.572,0,0,1-197.711,80.746Zm39.293-52.782a46.035,46.035,0,0,0-8.645-20.675l179.219-177.443c0,.163.02.317.027.48l1.031-.038a297.562,297.562,0,0,1,81.227,197.676Zm283.406-255.16a173.708,173.708,0,0,0,19.34,79.938c-34.453-23.473-71.129-38.243-110.48-44.378l105.152-104.1A174.014,174.014,0,0,0,5426.75,1215.963Zm-63.164-63.168a174.019,174.019,0,0,0,66.859-13.27L5324.3,1244.609c-5.453-39.974-19.578-77.245-42.715-112.189A173.6,173.6,0,0,0,5363.586,1152.8Zm-353.523-102.574c32.664-25.271,67.918-56.225,87.551-96.7,19.652,40.483,54.9,71.427,87.57,96.7a431.264,431.264,0,0,1,55.625,50.879l-.6.587q3.105,3.1,6.34,6.028c37.223,43.167,58.809,89.93,65.328,141.27-1.18-.077-2.363-.154-3.547-.222a310.928,310.928,0,0,0-421.418,0c-1.2.067-2.375.145-3.551.222,6.617-52.167,28.8-99.6,67.137-143.347,2.848-2.5,5.645-5.067,8.359-7.77l-.715-.711A437.024,437.024,0,0,1,5010.063,1050.221ZM4915.68,1129.5c-23.5,34.618-38.223,71.467-44.242,111.008l-104.5-105.546a174.779,174.779,0,0,0,148.738-5.462Zm-157,15.405,105.035,106.084c-39.914,5.6-77.121,19.886-112.016,43.146A175.115,175.115,0,0,0,4758.684,1144.9Zm-88.4,245.1a432,432,0,0,1,50.3-55.128l.629.635c1.883-1.885,3.563-3.876,5.344-5.817,43.492-37.878,90.66-59.821,142.488-66.4-.074,1.174-.152,2.347-.223,3.521a310.424,310.424,0,0,0-82.645,204.311H4585.508C4620.219,1450.8,4647.559,1419.379,4670.281,1390Zm0,175.107c-22.723-29.377-50.062-60.8-84.773-81.13h200.641a310.314,310.314,0,0,0,82.754,205.475c.047.788.094,1.576.141,2.355-54.512-6.914-103.887-30.732-149.25-72.322-.828-.855-1.555-1.769-2.4-2.625l-.16.164A436.45,436.45,0,0,1,4670.281,1565.11Zm77.66,93.266c35.09,24.146,72.469,39.253,112.633,45.358l-106.355,105.295A175.066,175.066,0,0,0,4747.941,1658.375ZM4831.66,1803.4a174.2,174.2,0,0,0-66.863,13.261l106.262-105.2c5.641,40.3,20.18,77.822,43.824,113.007A173.555,173.555,0,0,0,4831.66,1803.4Zm353.523,101.478c-32.68,25.28-67.918,56.234-87.57,96.708-19.633-40.474-54.887-71.428-87.551-96.708a431.238,431.238,0,0,1-55.117-50.291l.078-.078c-.293-.3-.6-.566-.9-.855-40.617-44.887-63.934-93.708-70.762-147.538.77.058,1.551.106,2.32.145a310.824,310.824,0,0,0,423.867,0c.781-.038,1.551-.087,2.328-.145-6.883,54.244-30.461,103.4-71.656,148.567-1.289,1.2-2.59,2.395-3.836,3.645l.172.173A436.612,436.612,0,0,1,5185.184,1904.881Zm93.215-77.591c23.984-34.829,39.051-71.918,45.254-111.748l104.648,105.7a174.861,174.861,0,0,0-149.9,6.049Zm158.152-15.992-106-107.064c40.637-5.539,78.469-20.078,113.91-43.9A175.108,175.108,0,0,0,5436.551,1811.3Zm88.4-246.188a430.68,430.68,0,0,1-50.879,55.629l-.051-.049c-.133.145-.25.289-.387.434-44.867,40.569-93.645,63.869-147.449,70.7.063-.789.109-1.577.145-2.355a310.3,310.3,0,0,0,82.754-205.484h200.641C5575.023,1504.308,5547.676,1535.733,5524.953,1565.11Z" transform="translate(-4550.832 -930.772)" opacity="0.01"/>
</svg>
