<svg xmlns="http://www.w3.org/2000/svg" width="45" height="54" viewBox="0 0 45 54"><g transform="translate(-42.666)"><g transform="translate(42.666)"><g transform="translate(0)"><path d="M83.166,18V5.625h-.043a1.084,1.084,0,0,0-.286-.8l-4.5-4.5a1.083,1.083,0,0,0-.8-.286V0H65.166a4.5,4.5,0,0,0-4.5,4.5V18h-2.25a4.5,4.5,0,0,0-4.5-4.5h-2.25a4.5,4.5,0,0,0-4.5,4.5,4.5,4.5,0,0,0-4.5,4.5v27a4.5,4.5,0,0,0,4.5,4.5h36a4.5,4.5,0,0,0,4.5-4.5v-27A4.5,4.5,0,0,0,83.166,18Zm-4.5-14.159.659.659h-.1a.564.564,0,0,1-.562-.562ZM62.916,4.5a2.253,2.253,0,0,1,2.25-2.25h11.25V3.938A2.815,2.815,0,0,0,79.229,6.75h1.687V22.5h-18ZM49.416,18a2.253,2.253,0,0,1,2.25-2.25h2.25A2.253,2.253,0,0,1,56.166,18v2.25a2.248,2.248,0,0,1-1.5,2.108,1.126,1.126,0,0,0-.748,1.06V39.582a1.126,1.126,0,0,0,.748,1.06,2.248,2.248,0,0,1,1.5,2.108V45a2.253,2.253,0,0,1-2.25,2.25h-2.25A2.253,2.253,0,0,1,49.416,45V42.75a2.248,2.248,0,0,1,1.5-2.108,1.126,1.126,0,0,0,.748-1.06V23.418a1.126,1.126,0,0,0-.748-1.06,2.248,2.248,0,0,1-1.5-2.108Zm36,31.5a2.253,2.253,0,0,1-2.25,2.25h-36a2.253,2.253,0,0,1-2.25-2.25v-27a2.253,2.253,0,0,1,2.25-2.25,4.5,4.5,0,0,0,2.25,3.883V38.867a4.5,4.5,0,0,0-2.25,3.883V45a4.5,4.5,0,0,0,4.5,4.5h2.25a4.5,4.5,0,0,0,4.5-4.5V42.75a4.5,4.5,0,0,0-2.25-3.883V24.133a4.5,4.5,0,0,0,2.25-3.883h2.25v3.375a1.124,1.124,0,0,0,1.125,1.125h20.25a1.124,1.124,0,0,0,1.125-1.125V20.25a2.253,2.253,0,0,1,2.25,2.25Z" transform="translate(-42.666)"/><path d="M268.375,85.333h-11.25a1.125,1.125,0,0,0,0,2.25h11.25a1.125,1.125,0,1,0,0-2.25Z" transform="translate(-233.5 -76.333)"/><path d="M268.375,128h-11.25a1.125,1.125,0,0,0,0,2.25h11.25a1.125,1.125,0,1,0,0-2.25Z" transform="translate(-233.5 -114.5)"/><path d="M263.875,170.667h-6.75a1.125,1.125,0,0,0,0,2.25h6.75a1.125,1.125,0,1,0,0-2.25Z" transform="translate(-233.5 -152.667)"/><circle cx="2.25" cy="2.25" r="2.25" transform="translate(36 45)"/><circle cx="2.25" cy="2.25" r="2.25" transform="translate(29.25 45)"/><circle cx="2.25" cy="2.25" r="2.25" transform="translate(22.5 45)"/><circle cx="2.25" cy="2.25" r="2.25" transform="translate(36 38.25)"/><circle cx="2.25" cy="2.25" r="2.25" transform="translate(29.25 38.25)"/><circle cx="2.25" cy="2.25" r="2.25" transform="translate(22.5 38.25)"/><circle cx="2.25" cy="2.25" r="2.25" transform="translate(36 31.5)"/><circle cx="2.25" cy="2.25" r="2.25" transform="translate(29.25 31.5)"/><circle cx="2.25" cy="2.25" r="2.25" transform="translate(22.5 31.5)"/></g></g></g></svg>