<svg id="Group_40" data-name="Group 40" xmlns="http://www.w3.org/2000/svg" width="152.304" height="93.99" viewBox="0 0 152.304 93.99">
  <rect id="Rectangle_4" data-name="Rectangle 4" width="20.136" height="1.504" transform="translate(65.56 81.787)"/>
  <path id="Path_4" data-name="Path 4" d="M1207.761,484.3h-2.449v-2.03H1204.2V487.7h1.116v-2.379h2.449V487.7h1.108v-5.424h-1.108Z" transform="translate(-1152.304 -393.815)"/>
  <path id="Path_5" data-name="Path 5" d="M1221.854,482.128a2.692,2.692,0,0,0-2.015.821,2.728,2.728,0,0,0-.8,2,2.762,2.762,0,0,0,.8,2,2.873,2.873,0,0,0,4.022,0,2.883,2.883,0,0,0,0-4A2.684,2.684,0,0,0,1221.854,482.128Zm1.193,4.091a1.672,1.672,0,0,1-2.394,0,1.944,1.944,0,0,1,0-2.541,1.674,1.674,0,0,1,2.394,0,1.92,1.92,0,0,1,0,2.541Z" transform="translate(-1156.036 -393.779)"/>
  <path id="Path_6" data-name="Path 6" d="M1234.145,483.272h1.713V487.7h1.116v-4.425h1.721v-1h-4.549Z" transform="translate(-1159.834 -393.815)"/>
  <path id="Path_7" data-name="Path 7" d="M1249.692,485.3H1252v-.984h-2.309v-1.047h2.867v-1h-3.983V487.7h4.068v-1h-2.952Z" transform="translate(-1163.462 -393.815)"/>
  <path id="Path_8" data-name="Path 8" d="M1263.564,482.273h-1.116V487.7h3.867v-1h-2.751Z" transform="translate(-1166.95 -393.815)"/>
  <path id="Path_9" data-name="Path 9" d="M1311.966,422.606v0a14.054,14.054,0,0,0-8.5-.007h0a14.148,14.148,0,0,0-6.2,3.977,14.167,14.167,0,0,0-6.191-3.968v0a14.054,14.054,0,0,0-8.5-.007h0a14.155,14.155,0,0,0,1.066,27.292c7.159,1.454,9.025-3.388,9.3-4.25l.014-.046c.016-.053.025-.085.025-.085l0,0a3.9,3.9,0,1,0-2.349,2.577,7.869,7.869,0,0,1-1.393.767,8.293,8.293,0,0,1-7.6-.705,14.248,14.248,0,0,1-2.273-1.736h0a14.1,14.1,0,0,1-4.466-10.314c0-.264.01-.526.024-.786H1293.6c-.014.261-.032.521-.032.786a14.156,14.156,0,0,0,10.967,13.789c7.16,1.454,9.025-3.388,9.3-4.25l.015-.046c.016-.053.024-.085.024-.085l0,0a3.9,3.9,0,1,0-2.349,2.577,7.868,7.868,0,0,1-1.393.767,8.293,8.293,0,0,1-7.6-.705,14.215,14.215,0,0,1-2.272-1.736h0a14.1,14.1,0,0,1-4.466-10.314c0-.264.01-.526.024-.786h26.019A14.158,14.158,0,0,0,1311.966,422.606Zm-36.895,11.2a14.161,14.161,0,0,1,8.169-10.618,9.336,9.336,0,0,1,6.939-.088c.136.058.272.118.406.181l.076.035a14.178,14.178,0,0,1,5.485,4.643,14.07,14.07,0,0,0-2.4,5.846Zm20.9,0a14.05,14.05,0,0,1,1.287-3.987,14.067,14.067,0,0,1,1.283,3.987Zm4.787,0a14.059,14.059,0,0,0-2.39-5.849,14.2,14.2,0,0,1,5.772-4.768,9.337,9.337,0,0,1,6.939-.088c.135.058.271.118.4.181.026.012.051.022.076.035a14.16,14.16,0,0,1,7.877,10.489Z" transform="translate(-1169.52 -378.643)"/>
  <path id="Path_10" data-name="Path 10" d="M1263.16,380.995a20.8,20.8,0,0,1,.815,4.449,19.435,19.435,0,0,0-.232-4.583,19.637,19.637,0,0,0-1.334-4.455,20.436,20.436,0,0,0-5.653-7.51,20.781,20.781,0,0,0-8.6-4.255,21.283,21.283,0,0,0-4.851-.536,20.9,20.9,0,0,0-4.878.574,22,22,0,0,0-4.637,1.694,21.2,21.2,0,0,0-4.132,2.725,21.436,21.436,0,0,0-6.807,22.562,22.634,22.634,0,0,0,1.951,4.6,22.254,22.254,0,0,0,2.971,4.03,23.031,23.031,0,0,0,3.781,3.239,34.825,34.825,0,0,0,4.184,2.434c.711.356,1.428.692,2.144,1.011s1.477.632,2.208.906c4.621,1.73,9.679,3.023,12.69,7.309a12.629,12.629,0,0,1,.975,1.764,12.254,12.254,0,0,1,1.03,3.9,12.424,12.424,0,0,1-.333,4.062,12.639,12.639,0,0,1-1.672,3.771,12.122,12.122,0,0,1-2.856,3.069,13.005,13.005,0,0,1-6.766,2.629,13.974,13.974,0,0,1-5.6-.97,3.877,3.877,0,1,0-4.149-2.532,2.429,2.429,0,0,0,.374.757,3.885,3.885,0,0,0,.841.946,9.038,9.038,0,0,0,1.828,1.244,13.627,13.627,0,0,0,6.488,1.784l.175,0c.068,0,.135,0,.2,0a14.35,14.35,0,0,0,13.641-9.98c.114-.4.24-.8.342-1.2l.224-1.234a17.414,17.414,0,0,0,.139-2.509,14.714,14.714,0,0,0-1.026-4.934,15.888,15.888,0,0,0-1.125-2.278c-3.047-5.2-8.786-6.953-14.036-9.083-.69-.28-1.344-.57-2.007-.874s-1.332-.635-1.979-.971a30.993,30.993,0,0,1-3.684-2.217c-.573-.409-1.128-.833-1.654-1.282a18.226,18.226,0,0,1-5.518-8.51,18.193,18.193,0,0,1,5.315-18.822,18.689,18.689,0,0,1,7.271-4.045,19.333,19.333,0,0,1,8.424-.5,19.13,19.13,0,0,1,4.126,1.173,18.775,18.775,0,0,1,3.8,2.074,19.461,19.461,0,0,1,3.281,2.883,20.951,20.951,0,0,1,2.575,3.58A19.059,19.059,0,0,1,1263.16,380.995Z" transform="translate(-1156.772 -364.104)"/>
  <path id="Path_11" data-name="Path 11" d="M1182.542,377.192h2.412v59.841h-2.412v.934h7.627v-.934h-2.412V377.192h2.412v-.934h-7.627Z" transform="translate(-1146.859 -367.16)"/>
  <path id="Path_12" data-name="Path 12" d="M1207.68,377.192h2.412v42.55h-2.412v.934h7.627v-.934H1212.9v-42.55h2.412v-.934h-7.627Z" transform="translate(-1153.18 -367.16)"/>
  <path id="Path_13" data-name="Path 13" d="M1209.787,435.132a3.566,3.566,0,0,1-1.843,1.564,13.486,13.486,0,0,1-3.362.289h-4.375V377.192h2.412v-.934h-7.627v.934h2.412v60.775h2.508v0h12l.15-6.983h-.921A11.159,11.159,0,0,1,1209.787,435.132Z" transform="translate(-1149.99 -367.16)"/>
  <path id="Path_14" data-name="Path 14" d="M1154.493,377.243a13.5,13.5,0,0,1,3.363.289,3.569,3.569,0,0,1,1.842,1.564,11.13,11.13,0,0,1,1.35,4.146h.921l-.15-6.983h-26.8l-.15,6.983h.922a11.15,11.15,0,0,1,1.349-4.146,3.57,3.57,0,0,1,1.843-1.564,13.487,13.487,0,0,1,3.363-.289h4.5v59.79h-2.422v.934h8v-.934H1150v-59.79Z" transform="translate(-1134.874 -367.16)"/>
  <path id="Path_15" data-name="Path 15" d="M1169.356,417.386c1.873-.647,2.752-1.9,3.684-3.748a16.458,16.458,0,0,0,1.4-7.359c0-7.13-2.426-10.925-7.552-11.082l-2.389-.026h-2.473v.935h2.473v45.682h-2.473v.934h2.473v0h2.913a9.369,9.369,0,0,0,4.647-.989q1.735-.989,2.847-4.2a23.459,23.459,0,0,0,1.112-7.653,19.543,19.543,0,0,0-1.639-8.5A6.668,6.668,0,0,0,1169.356,417.386Zm-1.947-21.266a3.029,3.029,0,0,1,2.111,1.078,7.364,7.364,0,0,1,1.361,3.107,36.3,36.3,0,0,1,.454,6.459c0,3.518-.386,6.2-1.157,7.772a3.3,3.3,0,0,1-2.769,2.281Zm4.288,42.822q-1.171,2.846-3.512,2.846a2.592,2.592,0,0,1-.776-.119v-23.82a5.321,5.321,0,0,1,4.135,3.269q1.324,2.759,1.324,8.591C1172.868,433.5,1172.478,437.044,1171.7,438.942Z" transform="translate(-1141.7 -371.915)"/>
</svg>
