<svg xmlns="http://www.w3.org/2000/svg" width="47.003" height="47.093" viewBox="0 0 47.003 47.093"><path d="M47.11,35.758v6.788a4.525,4.525,0,0,1-4.932,4.525,44.777,44.777,0,0,1-19.526-6.946A44.12,44.12,0,0,1,9.076,26.549,44.776,44.776,0,0,1,2.13,6.933,4.525,4.525,0,0,1,6.633,2h6.788a4.525,4.525,0,0,1,4.525,3.892A29.051,29.051,0,0,0,19.53,12.25a4.525,4.525,0,0,1-1.018,4.774L15.638,19.9A36.2,36.2,0,0,0,29.213,33.473L32.087,30.6a4.525,4.525,0,0,1,4.774-1.018,29.052,29.052,0,0,0,6.358,1.584,4.525,4.525,0,0,1,3.892,4.593Z" transform="translate(-1.11 -1)" fill="none" stroke="#000" stroke-linecap="round" stroke-linejoin="round" stroke-width="2"/></svg>