<svg xmlns="http://www.w3.org/2000/svg" width="298.542" height="299.296" viewBox="0 0 298.542 299.296"><g transform="translate(4.697 5.253)"><text transform="translate(45.226 79.769) rotate(-53.34)" font-size="29" font-family="SegoeUI, Segoe UI"><tspan x="0" y="0">T</tspan></text><text transform="translate(51.575 67.769) rotate(-46.77)" font-size="27" font-family="SegoeUI, Segoe UI"><tspan x="0" y="0">b</tspan></text><text transform="matrix(0.747, -0.664, 0.664, 0.747, 63.253, 58.504)" font-size="29" font-family="SegoeUI, Segoe UI"><tspan x="0" y="0">i</tspan></text><text transform="translate(68.337 53.979) rotate(-38.42)" font-size="29" font-family="SegoeUI, Segoe UI"><tspan x="0" y="0">l</tspan></text><text transform="translate(73.42 49.917) rotate(-35.2)" font-size="29" font-family="SegoeUI, Segoe UI"><tspan x="0" y="0">i</tspan></text><text transform="translate(78.865 45.929) rotate(-30.68)" font-size="29" font-family="SegoeUI, Segoe UI"><tspan x="0" y="0">s</tspan></text><text transform="matrix(0.912, -0.411, 0.411, 0.912, 88.957, 39.848)" font-size="29" font-family="SegoeUI, Segoe UI"><tspan x="0" y="0">e</tspan></text><text transform="translate(101.702 34.009) rotate(-17.59)" font-size="29" font-family="SegoeUI, Segoe UI"><tspan x="0" y="0">e</tspan></text><text transform="translate(123.203 27.877) rotate(-6.34)" font-size="29" font-family="SegoeUI, Segoe UI"><tspan x="0" y="0">H</tspan></text><text transform="translate(139.695 26.124) rotate(1.63)" font-size="29" font-family="SegoeUI, Segoe UI"><tspan x="0" y="0">o</tspan></text><text transform="translate(155.743 25.74) rotate(7.7)" font-size="28" font-family="SegoeUI, Segoe UI"><tspan x="0" y="0">t</tspan></text><text transform="translate(164.775 27.824) rotate(13.36)" font-size="29" font-family="SegoeUI, Segoe UI"><tspan x="0" y="0">e</tspan></text><text transform="translate(178.501 31.23) rotate(18.36)" font-size="29" font-family="SegoeUI, Segoe UI"><tspan x="0" y="0">l</tspan></text><text transform="translate(214.439 47.974) rotate(43.386)" font-size="29" font-family="SegoeUI, Segoe UI"><tspan x="0" y="0">@</tspan></text><text transform="translate(249.845 90.353) rotate(66.272)" font-size="29" font-family="SegoeUI, Segoe UI"><tspan x="0" y="0">T</tspan></text><text transform="matrix(0.296, 0.955, -0.955, 0.296, 257.132, 101.729)" font-size="27" font-family="SegoeUI, Segoe UI"><tspan x="0" y="0">b</tspan></text><text transform="translate(259.432 116.532) rotate(77.99)" font-size="29" font-family="SegoeUI, Segoe UI"><tspan x="0" y="0">l</tspan></text><text transform="translate(260.794 122.88) rotate(81.15)" font-size="29" font-family="SegoeUI, Segoe UI"><tspan x="0" y="0">l</tspan></text><text transform="translate(261.816 129.35) rotate(84.38)" font-size="29" font-family="SegoeUI, Segoe UI"><tspan x="0" y="0">i</tspan></text><text transform="translate(262.595 136.035) rotate(88.87)" font-size="29" font-family="SegoeUI, Segoe UI"><tspan x="0" y="0">s</tspan></text><text transform="translate(262.913 147.831) rotate(95.03)" font-size="29" font-family="SegoeUI, Segoe UI"><tspan x="0" y="0">e</tspan></text><text transform="matrix(-0.204, 0.979, -0.979, -0.204, 261.722, 161.745)" font-size="29" font-family="SegoeUI, Segoe UI"><tspan x="0" y="0">e</tspan></text><text transform="translate(256.52 183.489) rotate(113.34)" font-size="29" font-family="SegoeUI, Segoe UI"><tspan x="0" y="0">H</tspan></text><text transform="matrix(-0.517, 0.856, -0.856, -0.517, 249.954, 198.766)" font-size="29" font-family="SegoeUI, Segoe UI"><tspan x="0" y="0">o</tspan></text><text transform="matrix(-0.605, 0.796, -0.796, -0.605, 242.429, 212.828)" font-size="28" font-family="SegoeUI, Segoe UI"><tspan x="0" y="0">t</tspan></text><text transform="matrix(-0.68, 0.733, -0.733, -0.68, 236.139, 219.688)" font-size="29" font-family="SegoeUI, Segoe UI"><tspan x="0" y="0">e</tspan></text><text transform="translate(226.381 229.983) rotate(137.82)" font-size="29" font-family="SegoeUI, Segoe UI"><tspan x="0" y="0">l</tspan></text><text transform="translate(201.736 249.291) rotate(158.839)" font-size="29" font-family="SegoeUI, Segoe UI"><tspan x="0" y="0">@</tspan></text><text transform="translate(148.259 263.043) rotate(-178.282)" font-size="29" font-family="SegoeUI, Segoe UI"><tspan x="0" y="0">T</tspan></text><text transform="translate(134.767 264.733) rotate(-171.85)" font-size="27" font-family="SegoeUI, Segoe UI"><tspan x="0" y="0">b</tspan></text><text transform="translate(120.474 260.515) rotate(-166.64)" font-size="29" font-family="SegoeUI, Segoe UI"><tspan x="0" y="0">i</tspan></text><text transform="translate(113.833 258.934) rotate(-163.39)" font-size="29" font-family="SegoeUI, Segoe UI"><tspan x="0" y="0">l</tspan></text><text transform="translate(107.631 257.11) rotate(-160.15)" font-size="29" font-family="SegoeUI, Segoe UI"><tspan x="0" y="0">i</tspan></text><text transform="matrix(-0.912, -0.411, 0.411, -0.912, 101.261, 254.923)" font-size="29" font-family="SegoeUI, Segoe UI"><tspan x="0" y="0">s</tspan></text><text transform="translate(90.463 250.133) rotate(-149.331)" font-size="29" font-family="SegoeUI, Segoe UI"><tspan x="0" y="0">e</tspan></text><text transform="translate(78.397 243.008) rotate(-142.326)" font-size="29" font-family="SegoeUI, Segoe UI"><tspan x="0" y="0">e</tspan></text><text transform="translate(61.029 228.903) rotate(-131.16)" font-size="29" font-family="SegoeUI, Segoe UI"><tspan x="0" y="0">H</tspan></text><text transform="matrix(-0.552, -0.834, 0.834, -0.552, 50.129, 216.449)" font-size="29" font-family="SegoeUI, Segoe UI"><tspan x="0" y="0">o</tspan></text><text transform="translate(40.602 203.574) rotate(-117.3)" font-size="28" font-family="SegoeUI, Segoe UI"><tspan x="0" y="0">t</tspan></text><text transform="translate(37.113 194.922) rotate(-111.695)" font-size="29" font-family="SegoeUI, Segoe UI"><tspan x="0" y="0">e</tspan></text><text transform="translate(32.051 181.732) rotate(-106.61)" font-size="29" font-family="SegoeUI, Segoe UI"><tspan x="0" y="0">l</tspan></text><text transform="translate(25.573 134.222) rotate(-77.54)" font-size="29" font-family="SegoeUI, Segoe UI"><tspan x="0" y="0">@</tspan></text></g></svg>